<svg viewBox="0 0 68 12" fill="#333333"  xmlns="http://www.w3.org/2000/svg">
<path d="M3.2868 11.7879V10.3974L4.00404 2.09038L4.09135 1.96011L0.377327 1.67836C0.290012 1.66827 0.204775 1.63696 0.121618 1.58445C0.0405393 1.53194 0 1.45822 0 1.36329C0 1.29866 0.0114342 1.24918 0.0343025 1.21485C0.0592498 1.18253 0.106026 1.14719 0.174631 1.10881H0.801431C2.10908 1.10881 3.41777 1.13507 4.72751 1.18758C6.03724 1.24009 7.34593 1.28452 8.65358 1.32088C8.71179 1.36935 8.76273 1.42388 8.80638 1.48447C8.85004 1.54708 8.87187 1.61171 8.87187 1.67836C8.87187 1.74299 8.83029 1.8157 8.74713 1.89649C8.66398 1.97728 8.58809 2.01767 8.51949 2.01767H4.76493C4.76493 2.52058 4.73062 3.00126 4.66202 3.45973C4.59341 3.9182 4.53936 4.40293 4.49986 4.91391C4.49155 4.99066 4.48219 5.14921 4.4718 5.38955C4.4614 5.63191 4.44685 5.91164 4.42814 6.22873C4.40943 6.54582 4.38968 6.88412 4.36889 7.24363C4.35018 7.60313 4.33043 7.94143 4.30964 8.25852C4.29093 8.57561 4.27222 8.85534 4.25351 9.0977C4.23272 9.33805 4.22232 9.49659 4.22232 9.57334C4.21401 9.64807 4.21713 9.76117 4.23168 9.91265C4.24623 10.0641 4.25767 10.2257 4.26598 10.3974C4.27638 10.567 4.2743 10.7448 4.25974 10.9306C4.24519 11.1144 4.21609 11.284 4.17243 11.4395C4.12877 11.5971 4.05809 11.7203 3.96038 11.8091C3.86267 11.9 3.73585 11.9455 3.57993 11.9455C3.56122 11.9455 3.52484 11.9424 3.47079 11.9364C3.41674 11.9323 3.38451 11.9303 3.37412 11.9303L3.2868 11.7879ZM10.8458 8.79172C10.825 8.75335 10.7928 8.69881 10.7492 8.62812C10.7055 8.55744 10.6546 8.52209 10.5963 8.52209C10.4113 8.52209 10.2242 8.59985 10.035 8.75537C9.84377 8.9129 9.66291 9.0977 9.49243 9.30977C9.32196 9.52386 9.17643 9.73896 9.05586 9.95506C8.9332 10.1732 8.85732 10.3439 8.82821 10.4671C8.78871 10.5903 8.76896 10.7367 8.76896 10.9063C8.76896 11.078 8.75649 11.2396 8.73154 11.3911C8.70867 11.5425 8.65566 11.6698 8.5725 11.7728C8.48935 11.8778 8.3459 11.9303 8.14216 11.9303C8.01535 11.9303 7.93011 11.9041 7.88645 11.8516C7.84072 11.799 7.81785 11.7112 7.81785 11.588C7.88645 11.1336 7.94778 10.7599 8.00183 10.4671C8.05589 10.1742 8.10474 9.91669 8.1484 9.69452C8.19206 9.47236 8.23571 9.25423 8.27937 9.04014C8.32303 8.82807 8.37396 8.57056 8.43217 8.26761C8.49038 7.96466 8.55379 7.59303 8.6224 7.15274C8.691 6.71245 8.77416 6.15097 8.87187 5.46832C8.87187 5.32694 8.88122 5.12598 8.89994 4.86544C8.92072 4.6049 8.95711 4.32517 9.00908 4.02626C9.06313 3.72936 9.13382 3.42641 9.22113 3.11739C9.31053 2.8104 9.42071 2.5337 9.55168 2.2873C9.68266 2.0409 9.8365 1.83994 10.0132 1.68442C10.1878 1.52891 10.3916 1.45115 10.6244 1.45115C10.7907 1.45115 10.9248 1.50568 11.0267 1.61474C11.1306 1.72179 11.2086 1.85105 11.2606 2.00252C11.3146 2.154 11.3468 2.31255 11.3572 2.47816C11.3656 2.64378 11.3697 2.7791 11.3697 2.88412C11.3697 3.12042 11.351 3.34562 11.3136 3.55971C11.2741 3.77177 11.2252 3.98485 11.167 4.19894C11.1088 4.41101 11.0454 4.62409 10.9768 4.83817C10.9082 5.05024 10.85 5.26029 10.8022 5.46832L9.86664 7.20121L9.33963 8.31002L9.41135 8.46453C9.61717 8.22823 9.82714 8.04645 10.0413 7.91921C10.2554 7.78995 10.5236 7.71623 10.8458 7.69806C10.9913 7.68796 11.115 7.73037 11.2169 7.8253C11.3188 7.92022 11.404 8.0414 11.4726 8.18884C11.5412 8.33426 11.5932 8.48271 11.6285 8.63418C11.6618 8.78566 11.6836 8.90886 11.694 9.00379C11.694 9.06034 11.6888 9.15022 11.6784 9.27342C11.668 9.39662 11.6587 9.53901 11.6504 9.70058C11.64 9.86216 11.6327 10.0298 11.6285 10.2035C11.6223 10.3792 11.6296 10.5428 11.6504 10.6943C11.6691 10.8457 11.7096 10.976 11.772 11.0851C11.8364 11.1941 11.9217 11.2578 12.0277 11.2759C12.4081 11.2295 12.747 11.1659 13.0443 11.0851C13.3416 11.0043 13.6025 10.8912 13.827 10.7458C14.0515 10.5983 14.2386 10.4105 14.3883 10.1823C14.5401 9.95607 14.6555 9.67736 14.7345 9.34613C14.801 9.2512 14.8977 9.20374 15.0245 9.20374C15.1721 9.20374 15.2677 9.25625 15.3114 9.36127C15.355 9.46428 15.3769 9.57738 15.3769 9.70058C15.3769 10.0803 15.2521 10.4145 15.0027 10.7034C14.7553 10.9902 14.4413 11.2285 14.0609 11.4183C13.6805 11.6082 13.2709 11.7526 12.8322 11.8516C12.3936 11.9505 11.9892 12 11.6192 12C11.3863 12 11.2252 11.9222 11.1358 11.7667C11.0485 11.6112 10.9976 11.4224 10.983 11.2002C10.9685 10.976 10.9664 10.7508 10.9768 10.5246C10.9872 10.2964 10.9872 10.1116 10.9768 9.97021C10.9768 9.92376 10.9716 9.846 10.9612 9.73694C10.9529 9.62787 10.9415 9.51174 10.9269 9.38854C10.9103 9.26534 10.8926 9.14719 10.8739 9.03408C10.8552 8.91896 10.8458 8.83817 10.8458 8.79172ZM9.64524 5.38349C9.64524 5.41177 9.64524 5.45923 9.64524 5.52588C9.64524 5.59253 9.64835 5.65413 9.65459 5.71068C9.65875 5.76723 9.66083 5.81873 9.66083 5.86519C9.66083 5.91366 9.66083 5.94294 9.66083 5.95304L9.73255 6.02272C9.83026 5.96617 9.92069 5.86721 10.0039 5.72583C10.087 5.58243 10.1629 5.41177 10.2315 5.21384C10.3001 5.01389 10.3604 4.80283 10.4124 4.58066C10.4664 4.3585 10.5132 4.13835 10.5527 3.92022C10.5922 3.7021 10.6234 3.50316 10.6462 3.3234C10.6712 3.14365 10.6837 2.99722 10.6837 2.88412C10.6837 2.84575 10.6816 2.77506 10.6774 2.67205C10.6712 2.56703 10.6639 2.50543 10.6556 2.48725L10.5808 2.34486C10.3479 2.52462 10.1681 2.73769 10.0413 2.9841C9.91446 3.2305 9.82195 3.48599 9.76374 3.75057C9.70552 4.01515 9.67122 4.28983 9.66083 4.5746C9.65043 4.85736 9.64524 5.12699 9.64524 5.38349ZM15.0993 10.8791C15.0993 10.869 15.1035 10.8356 15.1118 10.7791C15.1222 10.7225 15.1326 10.664 15.143 10.6034C15.1534 10.5408 15.1627 10.4832 15.1711 10.4307C15.1814 10.3802 15.1866 10.3449 15.1866 10.3247V10.2701V10.1823L15.3925 9.28856C15.5567 8.94724 15.7292 8.62106 15.9101 8.31002C16.091 7.99697 16.2978 7.72229 16.5307 7.48599C16.7656 7.24968 17.0359 7.05983 17.3415 6.91644C17.6491 6.77506 18.0223 6.70437 18.461 6.70437C18.5483 6.70437 18.6574 6.73062 18.7884 6.78314C18.9215 6.83565 19.0535 6.89927 19.1844 6.974C19.3154 7.05075 19.437 7.1285 19.5493 7.20727C19.6616 7.28806 19.7468 7.36178 19.805 7.42843C20.1065 7.38197 20.3258 7.35572 20.463 7.34966C20.6002 7.34562 20.7177 7.34158 20.8154 7.33754C20.911 7.33148 21.0149 7.31432 21.1272 7.28604C21.2395 7.25776 21.4131 7.19616 21.648 7.10124C21.8122 7.05478 21.9723 7.03156 22.1282 7.03156C22.1968 7.03156 22.2634 7.05983 22.3278 7.11639C22.3902 7.17294 22.4214 7.23959 22.4214 7.31633C22.4214 7.40924 22.3871 7.49407 22.3184 7.57082C22.2519 7.64554 22.1698 7.69301 22.0721 7.7132L20.2447 8.11007L20.0825 8.17975C20.0742 8.69276 19.9578 9.18051 19.7333 9.64302C19.5088 10.1075 19.2115 10.5145 18.8414 10.8639C18.4714 11.2154 18.0421 11.4931 17.5535 11.697C17.067 11.899 16.5608 12 16.0349 12C15.9954 12 15.9319 11.998 15.8446 11.9939C15.7573 11.9899 15.6991 11.9879 15.67 11.9879C15.4538 11.9031 15.3051 11.7465 15.2241 11.5183C15.1409 11.2921 15.0993 11.079 15.0993 10.8791ZM16.0349 11.1638C16.0432 11.2103 16.0816 11.2335 16.1502 11.2335C16.2188 11.2335 16.2677 11.2335 16.2968 11.2335C16.6481 11.2335 17.0088 11.1467 17.3789 10.973C17.7489 10.7973 18.0826 10.5701 18.3799 10.2913C18.6772 10.0106 18.9215 9.69351 19.1127 9.34007C19.3019 8.9846 19.3965 8.62711 19.3965 8.26761C19.0847 8.26761 18.7728 8.24135 18.461 8.18884C18.1491 8.13633 17.8466 8.11007 17.5535 8.11007H17.541L16.328 9.36127C16.2594 9.4259 16.2053 9.51578 16.1658 9.6309C16.1263 9.744 16.0972 9.8662 16.0785 9.99748C16.0577 10.1308 16.0432 10.2641 16.0349 10.3974C16.0245 10.5287 16.0193 10.6468 16.0193 10.7518C16.0193 10.7801 16.0193 10.8468 16.0193 10.9518C16.0193 11.0548 16.0245 11.1255 16.0349 11.1638ZM21.6168 10.2974C21.8912 10.0975 22.0939 9.90356 22.2249 9.71573C22.3559 9.52588 22.4609 9.33603 22.5399 9.14618C22.6168 8.95633 22.6802 8.75537 22.7301 8.5433C22.7779 8.33123 22.8559 8.09695 22.964 7.84044C22.9245 7.7738 22.9026 7.71421 22.8985 7.6617C22.8922 7.61121 22.8891 7.54759 22.8891 7.47084C22.8891 7.39611 22.9016 7.30624 22.9265 7.20121C22.9515 7.09619 22.9879 6.99924 23.0357 6.91038C23.0856 6.81949 23.1438 6.74173 23.2103 6.6771C23.2789 6.61045 23.3621 6.57713 23.4598 6.57713C23.4494 6.6155 23.5055 6.65792 23.6282 6.70437C23.7508 6.75082 23.9016 6.80333 24.0803 6.8619C24.2612 6.91846 24.4535 6.97905 24.6573 7.04368C24.8631 7.11033 25.0439 7.18203 25.1999 7.25877C25.3745 7.3537 25.4982 7.45569 25.5709 7.56476C25.6458 7.6718 25.6832 7.8253 25.6832 8.02525C25.6832 8.205 25.6603 8.40798 25.6146 8.63418C25.5709 8.86241 25.5273 9.09265 25.4836 9.32492C25.44 9.55718 25.3963 9.78945 25.3527 10.0217C25.309 10.252 25.2872 10.462 25.2872 10.6519V11.0215C25.2768 11.1063 25.2986 11.1517 25.3527 11.1578C25.4067 11.1618 25.4576 11.1638 25.5055 11.1638C25.624 11.1638 25.731 11.1447 25.8267 11.1063C25.9244 11.0679 26.0252 11.0255 26.1291 10.979C26.231 10.9306 26.3308 10.8851 26.4285 10.8427C26.5241 10.8003 26.626 10.77 26.7341 10.7518L28.022 9.98536C28.0594 9.91871 28.1104 9.86418 28.1748 9.82176C28.2372 9.77935 28.2975 9.73896 28.3557 9.70058C28.4534 9.64403 28.5709 9.56324 28.7081 9.45822C28.7767 9.40167 28.8494 9.34512 28.9264 9.28856H29.366C29.3952 9.28856 29.4149 9.31684 29.4253 9.37339C29.4336 9.42994 29.4378 9.47236 29.4378 9.50063C29.4378 9.61575 29.3557 9.75814 29.1914 9.9278C29.0251 10.0975 28.8099 10.2722 28.5459 10.4519C28.284 10.6337 27.9919 10.8114 27.6696 10.9851C27.3474 11.1608 27.0335 11.3194 26.7279 11.4607C26.4202 11.6041 26.1375 11.7183 25.8797 11.8031C25.6219 11.8879 25.4244 11.9303 25.2872 11.9303C25.1125 11.9303 24.9712 11.8879 24.8631 11.8031C24.755 11.7183 24.6676 11.6142 24.6011 11.491C24.5325 11.3678 24.4857 11.2325 24.4608 11.0851C24.4358 10.9376 24.4234 10.7932 24.4234 10.6519C24.4234 10.5489 24.4577 10.4024 24.5263 10.2126C24.5949 10.0227 24.6728 9.82883 24.7602 9.6309C24.8475 9.43095 24.9254 9.23605 24.994 9.0462C25.0626 8.85837 25.0969 8.70689 25.0969 8.59177C25.0969 8.58369 25.0263 8.54633 24.8849 8.47968C24.7435 8.41303 24.5897 8.33931 24.4234 8.25852C24.2591 8.17773 24.1063 8.10704 23.965 8.04645C23.8236 7.98384 23.7529 7.9485 23.7529 7.94042C23.5388 8.15855 23.3901 8.3898 23.307 8.63418C23.2238 8.88059 23.1407 9.13709 23.0575 9.40369C22.9743 9.66827 22.8527 9.93285 22.6927 10.1974C22.5326 10.462 22.2623 10.7225 21.8819 10.979C21.8715 10.979 21.8496 10.974 21.8164 10.9639C21.781 10.9558 21.7467 10.9296 21.7135 10.8851C21.6781 10.8427 21.6511 10.7771 21.6324 10.6882C21.6137 10.5973 21.6085 10.4671 21.6168 10.2974ZM36.0893 9.77026C36.0311 9.76218 35.9698 9.74602 35.9053 9.72179C35.843 9.69755 35.7879 9.66726 35.7401 9.6309C35.7588 8.90987 35.7515 8.21611 35.7182 7.54961C35.6829 6.88109 35.6652 6.18733 35.6652 5.46832C35.6652 5.09063 35.6902 4.73113 35.7401 4.3898C35.7879 4.04847 35.8534 3.71219 35.9365 3.38096C36.0197 3.04973 36.1195 2.72355 36.2359 2.40242C36.3523 2.07927 36.4687 1.74299 36.5852 1.39359C36.6143 1.30876 36.6288 1.1997 36.6288 1.0664C36.6288 0.933098 36.6392 0.802827 36.66 0.675587C36.6787 0.548346 36.7151 0.439283 36.7691 0.348397C36.8232 0.259531 36.9282 0.215098 37.0841 0.215098C37.1714 0.215098 37.2463 0.241354 37.3086 0.293866C37.3731 0.344358 37.4438 0.369604 37.5207 0.369604C37.6101 0.369604 37.7057 0.351427 37.8076 0.315072C37.9094 0.276698 38.0186 0.233275 38.135 0.184802C38.2535 0.138349 38.373 0.0959361 38.4936 0.057562C38.6163 0.0191878 38.741 0 38.8678 0C39.4229 0 39.8491 0.170665 40.1464 0.511993C40.4437 0.853321 40.5923 1.28453 40.5923 1.80561C40.5923 1.90053 40.5746 2.01868 40.5393 2.16006C40.506 2.30144 40.4946 2.41454 40.505 2.49937C40.426 2.92552 40.3013 3.33552 40.1308 3.72936C39.9603 4.12118 39.7535 4.49785 39.5102 4.85938C40.0549 4.89573 40.557 5.01793 41.0164 5.22595C41.4738 5.436 41.8729 5.70866 42.2139 6.04393C42.5548 6.3792 42.8209 6.77708 43.0122 7.23757C43.2014 7.69604 43.296 8.1949 43.296 8.73416C43.296 9.19869 43.2253 9.63191 43.0839 10.0338C42.9426 10.4357 42.7378 10.7811 42.4696 11.0699C42.2014 11.3587 41.8729 11.586 41.4842 11.7516C41.0933 11.9172 40.6495 12 40.1526 12C39.6849 12 39.2608 11.9505 38.8803 11.8516C38.5019 11.7526 38.1496 11.6082 37.8232 11.4183C37.4947 11.2285 37.1901 10.9972 36.9095 10.7246C36.6267 10.4499 36.3534 10.1318 36.0893 9.77026ZM36.7317 9.36127L36.7629 9.40369C36.7712 9.42186 36.7806 9.44004 36.791 9.45822C36.8014 9.47842 36.8107 9.49255 36.819 9.50063C36.8294 9.52891 36.8565 9.57233 36.9001 9.6309C36.9438 9.68745 36.9874 9.74401 37.0311 9.80056C37.0747 9.85711 37.1163 9.90861 37.1558 9.95506C37.1953 10.0035 37.2151 10.0328 37.2151 10.0429C37.5747 10.4388 37.977 10.7458 38.4219 10.9639C38.8647 11.182 39.3585 11.2911 39.9031 11.2911C40.743 11.2911 41.3646 11.0568 41.768 10.5882C42.1733 10.1197 42.376 9.49255 42.376 8.70689C42.376 8.24236 42.3054 7.82126 42.164 7.44358C42.0226 7.06387 41.8147 6.73668 41.5403 6.46201C41.268 6.18733 40.9416 5.97728 40.5611 5.83186C40.1828 5.68442 39.7691 5.6107 39.32 5.6107C39.2036 5.6107 39.1038 5.63393 39.0206 5.68038C38.9375 5.72886 38.8595 5.77935 38.7868 5.83186C38.714 5.88235 38.6381 5.93184 38.5591 5.98031C38.4822 6.02676 38.3949 6.04999 38.2972 6.04999C38.1807 6.04999 38.0924 6.00757 38.0321 5.92275C37.9739 5.83792 37.9448 5.73896 37.9448 5.62585C37.9448 5.48245 37.9791 5.36632 38.0477 5.27746C38.1163 5.18657 38.2015 5.10376 38.3034 5.02903C38.4053 4.95229 38.5082 4.87655 38.6121 4.80182C38.714 4.72507 38.7992 4.63014 38.8678 4.51704C38.9053 4.45039 38.951 4.3696 39.005 4.27468C39.0591 4.18177 39.1132 4.08786 39.1672 3.99293C39.2213 3.89801 39.267 3.81217 39.3044 3.73542C39.3439 3.66069 39.3637 3.62333 39.3637 3.62333C39.3824 3.55668 39.4146 3.44761 39.4603 3.29614C39.504 3.14466 39.5497 2.98612 39.5975 2.8205C39.6454 2.65489 39.689 2.49432 39.7285 2.3388C39.768 2.18127 39.793 2.07422 39.8034 2.01767V1.9177C39.8034 1.60667 39.7254 1.33704 39.5695 1.10881C39.4136 0.882605 39.1651 0.769503 38.8242 0.769503C38.7265 0.769503 38.609 0.790709 38.4718 0.833123C38.3346 0.875537 38.1984 0.930068 38.0633 0.996718C37.9261 1.06135 37.8045 1.14113 37.6984 1.23605C37.5903 1.33098 37.5311 1.43095 37.5207 1.53598L36.9531 5.54103V5.68038C36.9531 5.73896 36.9427 5.84095 36.9219 5.98637C36.9032 6.1338 36.8835 6.30952 36.8627 6.51351C36.844 6.71548 36.8222 6.92552 36.7972 7.14365C36.7743 7.36178 36.7525 7.57284 36.7317 7.77682C36.713 7.98081 36.6964 8.15552 36.6818 8.30093C36.6673 8.44837 36.66 8.55037 36.66 8.60692V8.63418C36.66 8.70083 36.6964 8.76546 36.7691 8.82807C36.8419 8.88867 36.8783 8.96642 36.8783 9.06135V9.14618C36.8679 9.16637 36.844 9.20172 36.8066 9.25221C36.7671 9.30472 36.7421 9.34108 36.7317 9.36127ZM36.2359 5.68038C36.1964 5.68038 36.1766 5.70462 36.1766 5.75309C36.1766 5.79955 36.1964 5.82277 36.2359 5.82277C36.2754 5.82277 36.2951 5.79955 36.2951 5.75309C36.2951 5.70462 36.2754 5.68038 36.2359 5.68038ZM43.982 11.5607C43.982 11.5324 43.982 11.4618 43.982 11.3486C43.982 11.2355 43.982 11.1598 43.982 11.1214C43.8178 10.5539 43.796 9.99546 43.9165 9.4461C44.0392 8.89674 44.2585 8.40192 44.5745 7.96163C44.8905 7.52133 45.2949 7.15173 45.7876 6.85282C46.2803 6.55592 46.8187 6.37415 47.4029 6.3075H47.668C47.8821 6.3075 48.0599 6.35193 48.2012 6.4408C48.3426 6.53168 48.4538 6.64782 48.5349 6.7892C48.6181 6.93057 48.6773 7.09114 48.7126 7.27089C48.7459 7.45266 48.7625 7.63343 48.7625 7.81318C48.7625 8.05756 48.7355 8.29589 48.6815 8.52815C48.6295 8.76041 48.5713 8.9947 48.5068 9.231C48.4445 9.46933 48.3863 9.70361 48.3322 9.93386C48.2782 10.1661 48.2511 10.4105 48.2511 10.667V10.7518C48.2615 10.77 48.274 10.8245 48.2885 10.9154C48.3031 11.0043 48.3145 11.0588 48.3228 11.079C48.3436 11.079 48.3925 11.081 48.4694 11.0851C48.5484 11.0891 48.5973 11.0911 48.616 11.0911C48.7137 11.0911 48.8093 11.0891 48.9029 11.0851C48.9943 11.081 49.0889 11.0598 49.1866 11.0215L51.9651 9.77026C51.9735 9.77026 51.9901 9.76824 52.015 9.7642C52.04 9.76016 52.0566 9.75814 52.0649 9.75814C52.1626 9.75814 52.2437 9.78642 52.3082 9.84297C52.3705 9.89952 52.4017 9.97526 52.4017 10.0702C52.4017 10.1166 52.3996 10.1611 52.3955 10.2035C52.3913 10.2479 52.3643 10.2883 52.3144 10.3247C52.2458 10.3731 52.1221 10.4398 51.9433 10.5246C51.7625 10.6094 51.5691 10.7044 51.3633 10.8094C51.1596 10.9124 50.9673 11.0114 50.7864 11.1063C50.6076 11.2012 50.4787 11.2628 50.3997 11.2911C50.2625 11.3678 50.1118 11.4365 49.9475 11.4971C49.7812 11.5577 49.6107 11.6173 49.4361 11.6758C49.2594 11.7324 49.0858 11.7768 48.9153 11.8091C48.7449 11.8435 48.5921 11.8606 48.4569 11.8606C48.2428 11.8606 48.0671 11.8243 47.9299 11.7516C47.7927 11.6809 47.6898 11.587 47.6212 11.4698C47.5547 11.3507 47.5089 11.2083 47.484 11.0427C47.459 10.8771 47.457 10.7044 47.4778 10.5246C47.2823 10.6761 47.0724 10.8367 46.8478 11.0063C46.6233 11.178 46.3894 11.3345 46.1462 11.4759C45.903 11.6173 45.6545 11.7405 45.4009 11.8455C45.1473 11.9485 44.8895 12 44.6275 12C44.4799 12 44.3479 11.9647 44.2315 11.894C44.1151 11.8233 44.0319 11.7122 43.982 11.5607ZM44.771 10.8791V11.2638C44.9955 11.2638 45.2439 11.1992 45.5163 11.0699C45.7907 10.9427 46.0589 10.7841 46.3208 10.5943C46.5849 10.4065 46.8239 10.2055 47.0381 9.99142C47.2522 9.77935 47.4175 9.58748 47.5339 9.4158C47.5443 9.13305 47.5859 8.8614 47.6586 8.60086C47.7314 8.34032 47.7678 8.07271 47.7678 7.79803C47.7678 7.77985 47.7657 7.75158 47.7615 7.7132C47.7574 7.67483 47.7553 7.64655 47.7553 7.62838C47.6285 7.52335 47.5214 7.46175 47.4341 7.44358C47.3447 7.42338 47.2272 7.41328 47.0817 7.41328C47.063 7.41328 47.0214 7.41328 46.957 7.41328C46.8946 7.41328 46.853 7.41833 46.8322 7.42843C46.774 7.47488 46.6774 7.56274 46.5422 7.692C46.405 7.81924 46.2605 7.9586 46.1088 8.11007C45.9591 8.26155 45.8177 8.40394 45.6847 8.53724C45.5537 8.66852 45.4643 8.7584 45.4165 8.80687C45.4061 8.80687 45.3863 8.82303 45.3572 8.85534C45.3281 8.88968 45.2959 8.93007 45.2606 8.97652C45.2273 9.02297 45.1982 9.06842 45.1733 9.11285C45.1504 9.15526 45.1338 9.19061 45.1234 9.21888L44.771 10.8791ZM53.1034 10.0429C53.0951 10.0429 53.0836 10.054 53.0691 10.0762C53.0545 10.1005 53.0368 10.1176 53.0161 10.1277C52.8996 10.3257 52.8071 10.5196 52.7385 10.7094C52.6699 10.8993 52.6013 11.1164 52.5327 11.3608C52.4662 11.4557 52.3965 11.5153 52.3238 11.5395C52.2489 11.5637 52.1626 11.5759 52.0649 11.5759C51.8425 11.5759 51.7313 11.4809 51.7313 11.2911C51.8373 10.875 51.9298 10.5367 52.0088 10.2762C52.0857 10.0157 52.1533 9.79349 52.2115 9.6097C52.2697 9.42388 52.3217 9.26029 52.3674 9.11891C52.4111 8.97753 52.4568 8.83312 52.5046 8.68569C52.5545 8.53825 52.6055 8.36556 52.6574 8.16764C52.7115 7.96769 52.7749 7.71926 52.8477 7.42237C52.9204 7.12345 53.0057 6.75587 53.1034 6.31962C53.2011 5.88538 53.3185 5.35117 53.4557 4.71699L53.9516 3.52335C53.9911 3.43853 54.0379 3.38399 54.0919 3.35976C54.1439 3.33552 54.2042 3.3234 54.2728 3.3234C54.3601 3.3234 54.4432 3.34966 54.5222 3.40217C54.5992 3.45468 54.648 3.5284 54.6688 3.62333C54.6688 3.64151 54.6688 3.67887 54.6688 3.73542C54.6688 3.79197 54.6709 3.85155 54.675 3.91416C54.6813 3.97475 54.6844 4.03131 54.6844 4.08382C54.6844 4.13633 54.6844 4.17672 54.6844 4.205C54.6844 4.70588 54.6428 5.13709 54.5597 5.49861C54.4765 5.85812 54.3642 6.19339 54.2229 6.50442C54.0815 6.81747 53.9256 7.13052 53.7551 7.44358C53.5846 7.75461 53.4162 8.11411 53.2499 8.52209C53.514 8.22924 53.8164 7.97879 54.1574 7.77077C54.4983 7.56072 54.8736 7.45569 55.2831 7.45569C55.3206 7.45569 55.3954 7.46074 55.5077 7.47084C55.6199 7.48094 55.6958 7.48599 55.7353 7.48599C55.939 7.54254 56.1168 7.6516 56.2685 7.81318C56.4203 7.97273 56.5398 8.15451 56.6272 8.3585C56.7145 8.56248 56.7779 8.77556 56.8174 8.99773C56.8569 9.21989 56.8766 9.42085 56.8766 9.60061C56.8766 9.79046 56.8569 9.99142 56.8174 10.2035C56.7779 10.4176 56.729 10.6195 56.6708 10.8094H56.8174L58.9379 10.2701C59.1312 10.2116 59.3277 10.1116 59.5273 9.97021C59.7289 9.82883 59.8921 9.69654 60.0169 9.57334H60.0481C60.0585 9.57334 60.0657 9.57132 60.0699 9.56728C60.074 9.56122 60.0813 9.55819 60.0917 9.55819C60.179 9.55819 60.2497 9.58445 60.3038 9.63696C60.3578 9.68947 60.3848 9.75814 60.3848 9.84297C60.3848 10.0126 60.3142 10.1691 60.1728 10.3125C60.0314 10.4539 59.863 10.5741 59.6676 10.6731C59.4722 10.772 59.2726 10.8579 59.0689 10.9306C58.8631 11.0013 58.7019 11.0507 58.5855 11.079C58.4878 11.1073 58.3194 11.1517 58.0803 11.2123C57.8433 11.2749 57.5876 11.3396 57.3132 11.4062C57.0409 11.4708 56.781 11.5314 56.5336 11.588C56.2841 11.6466 56.1157 11.6849 56.0284 11.7031C55.8808 11.7778 55.7447 11.8465 55.6199 11.9091C55.4931 11.9697 55.3517 12 55.1958 12C54.9713 12 54.7249 11.9465 54.4568 11.8394C54.1886 11.7304 53.9453 11.588 53.727 11.4123C53.5067 11.2366 53.331 11.0305 53.2 10.7942C53.067 10.5579 53.0348 10.3075 53.1034 10.0429ZM53.4557 9.82782C53.6013 9.82782 53.7208 9.8874 53.8144 10.0066C53.9058 10.1237 54.0098 10.254 54.1262 10.3974C54.2447 10.5388 54.3933 10.666 54.5721 10.7791C54.753 10.8942 55.0139 10.9518 55.3549 10.9518H55.6636C55.7509 10.8649 55.8216 10.7559 55.8756 10.6246C55.9276 10.4913 55.9661 10.356 55.991 10.2186C56.016 10.0813 56.0284 9.94193 56.0284 9.80056C56.0284 9.65918 56.0284 9.52689 56.0284 9.40369C56.0284 9.27039 56.0139 9.13002 55.9848 8.98258C55.9557 8.83716 55.9068 8.70285 55.8382 8.57965C55.7696 8.45645 55.674 8.35648 55.5513 8.27973C55.4307 8.205 55.2873 8.16764 55.121 8.16764C54.9256 8.16764 54.7239 8.22621 54.516 8.34335C54.306 8.46251 54.1127 8.61197 53.936 8.79172C53.7614 8.97147 53.6054 9.16132 53.4682 9.36127C53.3331 9.5592 53.2364 9.73896 53.1782 9.90053C53.226 9.86216 53.2718 9.84095 53.3154 9.83691C53.3591 9.83085 53.4059 9.82782 53.4557 9.82782ZM59.5803 11.5607C59.5803 11.5324 59.5803 11.4618 59.5803 11.3486C59.5803 11.2355 59.5803 11.1598 59.5803 11.1214C59.414 10.5539 59.3922 9.99546 59.5148 9.4461C59.6354 8.89674 59.8547 8.40192 60.1728 7.96163C60.4888 7.52133 60.8931 7.15173 61.3859 6.85282C61.8765 6.55592 62.4149 6.37415 63.0012 6.3075H63.2631C63.4773 6.3075 63.655 6.35193 63.7964 6.4408C63.9378 6.53168 64.05 6.64782 64.1332 6.7892C64.2163 6.93057 64.2745 7.09114 64.3078 7.27089C64.3431 7.45266 64.3608 7.63343 64.3608 7.81318C64.3608 8.05756 64.3338 8.29589 64.2797 8.52815C64.2257 8.76041 64.1675 8.9947 64.1051 9.231C64.0407 9.46933 63.9814 9.70361 63.9274 9.93386C63.8754 10.1661 63.8494 10.4105 63.8494 10.667V10.7518C63.8577 10.77 63.8691 10.8245 63.8837 10.9154C63.8983 11.0043 63.9107 11.0588 63.9211 11.079C63.9398 11.079 63.9887 11.081 64.0677 11.0851C64.1446 11.0891 64.1935 11.0911 64.2143 11.0911C64.312 11.0911 64.4066 11.0891 64.498 11.0851C64.5916 11.081 64.6872 11.0598 64.7849 11.0215L67.5603 9.77026C67.5707 9.77026 67.5884 9.76824 67.6133 9.7642C67.6362 9.76016 67.6528 9.75814 67.6632 9.75814C67.7609 9.75814 67.841 9.78642 67.9033 9.84297C67.9678 9.89952 68 9.97526 68 10.0702C68 10.1166 67.9979 10.1611 67.9938 10.2035C67.9875 10.2479 67.9605 10.2883 67.9127 10.3247C67.8441 10.3731 67.7193 10.4398 67.5385 10.5246C67.3576 10.6094 67.1653 10.7044 66.9616 10.8094C66.7578 10.9124 66.5655 11.0114 66.3847 11.1063C66.2038 11.2012 66.0749 11.2628 65.998 11.2911C65.8608 11.3678 65.709 11.4365 65.5427 11.4971C65.3785 11.5577 65.208 11.6173 65.0313 11.6758C64.8566 11.7324 64.6841 11.7768 64.5136 11.8091C64.3431 11.8435 64.1893 11.8606 64.0521 11.8606C63.838 11.8606 63.6623 11.8243 63.5251 11.7516C63.39 11.6809 63.2881 11.587 63.2195 11.4698C63.1509 11.3507 63.1051 11.2083 63.0823 11.0427C63.0573 10.8771 63.0542 10.7044 63.0729 10.5246C62.8775 10.6761 62.6686 10.8367 62.4461 11.0063C62.2216 11.178 61.9877 11.3345 61.7445 11.4759C61.4992 11.6173 61.2507 11.7405 60.9992 11.8455C60.7455 11.9485 60.4867 12 60.2227 12C60.0772 12 59.9462 11.9647 59.8298 11.894C59.7113 11.8233 59.6281 11.7122 59.5803 11.5607ZM60.3693 10.8791V11.2638C60.5938 11.2638 60.8422 11.1992 61.1146 11.0699C61.3869 10.9427 61.6551 10.7841 61.9191 10.5943C62.181 10.4065 62.4201 10.2055 62.6363 9.99142C62.8505 9.77935 63.0157 9.58748 63.1322 9.4158C63.1426 9.13305 63.1841 8.8614 63.2569 8.60086C63.3297 8.34032 63.366 8.07271 63.366 7.79803C63.366 7.77985 63.364 7.75158 63.3598 7.7132C63.3536 7.67483 63.3505 7.64655 63.3505 7.62838C63.2236 7.52335 63.1166 7.46175 63.0293 7.44358C62.9419 7.42338 62.8255 7.41328 62.68 7.41328C62.6592 7.41328 62.6176 7.41328 62.5553 7.41328C62.4908 7.41328 62.4492 7.41833 62.4305 7.42843C62.3723 7.47488 62.2746 7.56274 62.1374 7.692C62.0023 7.81924 61.8588 7.9586 61.7071 8.11007C61.5553 8.26155 61.4139 8.40394 61.2829 8.53724C61.152 8.66852 61.0615 8.7584 61.0117 8.80687C61.0033 8.80687 60.9836 8.82303 60.9524 8.85534C60.9233 8.88968 60.8921 8.93007 60.8588 8.97652C60.8256 9.02297 60.7965 9.06842 60.7715 9.11285C60.7466 9.15526 60.7289 9.19061 60.7185 9.21888L60.3693 10.8791Z"/>
</svg>
