<svg aria-hidden="true" style="position: absolute; width: 0; height: 0; overflow: hidden;" version="1.1" xmlns="http://www.w3.org/2000/svg" xmlns:xlink="http://www.w3.org/1999/xlink">
  <defs>
    <symbol viewBox="0 0 16 16" id="icon-share">
      <path d="m15.908 7.3455c-0.0824-0.31008-0.2256-0.60067-0.4212-0.85487-0.1957-0.25421-0.4398-0.46695-0.7183-0.62588-0.5332-0.29499-1.1551-0.38659-1.7506-0.25782s-1.1242 0.46918-1.4882 0.95817l-6.6674-3.3617c0.17926-0.53919 0.16333-1.1243-0.04501-1.6529-0.20833-0.52861-0.59579-0.96704-1.0945-1.2385-0.57249-0.31505-1.2449-0.39517-1.8753-0.22343-0.63039 0.17174-1.1694 0.58189-1.5034 1.1439-0.16564 0.27745-0.2741 0.58528-0.31899 0.90535-0.044891 0.32008-0.025302 0.6459 0.057612 0.95828 0.082915 0.31237 0.22748 0.60497 0.42516 0.86054 0.19768 0.25556 0.44449 0.46893 0.72587 0.62752 0.53002 0.29752 1.1502 0.39155 1.7445 0.26448 0.59428-0.12706 1.122-0.46652 1.4842-0.95483l6.6174 3.3317c-0.1297 0.45447-0.1297 0.93622 0 1.3907v0.09004l-6.5974 3.3917c-0.20129-0.2763-0.4606-0.5051-0.7597-0.6704-0.57016-0.321-1.2434-0.4055-1.8751-0.2353-0.63171 0.1702-1.1715 0.5816-1.5036 1.1458-0.16718 0.28-0.27635 0.5909-0.321 0.914-0.04465 0.3232-0.023869 0.652 0.061105 0.9669 0.083245 0.3098 0.22792 0.5997 0.42541 0.8524 0.19749 0.2526 0.44376 0.463 0.72414 0.6184 0.36893 0.208 0.78612 0.3149 1.2095 0.3101 0.43717 1e-3 0.86704-0.112 1.2474-0.3278 0.38032-0.2158 0.69799-0.5269 0.92178-0.9028 0.16718-0.28 0.27635-0.5909 0.321-0.914s0.02387-0.652-0.0611-0.9669v-0.0801l6.6674-3.3516c0.2038 0.27399 0.4626 0.50231 0.7597 0.67035 0.368 0.2115 0.7853 0.3219 1.2096 0.3201 0.4385 0.0019 0.8698-0.1117 1.2506-0.3295 0.3807-0.21775 0.6975-0.53197 0.9185-0.91108 0.1611-0.27889 0.2645-0.58737 0.304-0.90707 0.0395-0.31971 0.0143-0.6441-0.0741-0.95386zm-11.995-4.0821c-0.22739 0.38233-0.59466 0.66095-1.0239 0.77676-0.42923 0.1158-0.88664 0.05969-1.2752-0.15645-0.19022-0.10393-0.3575-0.24525-0.49182-0.41547-0.13432-0.17022-0.23291-0.36585-0.28986-0.57513-0.056943-0.20929-0.071067-0.42794-0.041526-0.64282 0.029541-0.21489 0.10214-0.42159 0.21344-0.60771 0.15389-0.26277 0.3747-0.47995 0.63989-0.62936 0.26519-0.14941 0.56524-0.22569 0.86952-0.22106 0.28604-0.006488 0.56874 0.062526 0.81968 0.2001 0.37817 0.21906 0.65475 0.57858 0.7697 1.0005 0.05628 0.21309 0.06935 0.43531 0.03844 0.65354-0.0309 0.21823-0.10515 0.42805-0.21837 0.6171h-0.01zm0 11.106c-0.22575 0.3841-0.5923 0.6648-1.0217 0.7825s-0.88767 0.0631-1.2774-0.1522c-0.37817-0.219-0.65475-0.5785-0.7697-1.0005-0.057049-0.2087-0.072287-0.4266-0.044838-0.6413 0.027449-0.2146 0.097043-0.4217 0.20478-0.6093 0.22576-0.384 0.5923-0.6648 1.0217-0.7825s0.88767-0.0631 1.2774 0.1522c0.29466 0.1534 0.53793 0.39 0.69973 0.6803 0.04851 0.0965 0.08865 0.1969 0.11995 0.3002 0.0539 0.2143 0.06398 0.4374 0.02963 0.6557-0.03436 0.2184-0.11244 0.4275-0.22955 0.6149h-0.01zm11.086-5.5528c-0.2256 0.38428-0.5929 0.66458-1.0229 0.78059-0.4299 0.11601-0.8882 0.05846-1.2762-0.16028-0.2973-0.14514-0.5419-0.37947-0.6997-0.67034-0.0498-0.09474-0.0868-0.19567-0.11-0.30015-0.0598-0.21052-0.0756-0.43114-0.0464-0.64806 0.0292-0.21691 0.1029-0.42545 0.2163-0.61257 0.2258-0.38404 0.5923-0.66477 1.0217-0.78248s0.8877-0.06312 1.2774 0.15216c0.1887 0.10673 0.354 0.25028 0.4862 0.42214s0.2287 0.36853 0.2835 0.57836c0.1216 0.41454 0.0749 0.86033-0.1299 1.2406z"></path>
    </symbol>
    <symbol viewBox="0 0 16 16" id="icon-facebook">
      <path d="m8 0c-1.5822 0-3.129 0.46919-4.4446 1.3482-1.3156 0.87905-2.341 2.1285-2.9465 3.5903-0.6055 1.4618-0.76393 3.0703-0.45525 4.6222 0.30868 1.5519 1.0706 2.9773 2.1894 4.0962 1.1188 1.1188 2.5443 1.8807 4.0961 2.1894s3.1604 0.1502 4.6222-0.4553c1.4618-0.6055 2.7112-1.6308 3.5903-2.9464 0.879-1.3156 1.3482-2.8624 1.3482-4.4446 0-2.1217-0.8429-4.1566-2.3431-5.6568-1.5003-1.5003-3.5352-2.3432-5.6569-2.3432zm0.8 14.35v-4.35h1.6c0.2122 0 0.4157-0.08429 0.5657-0.23431 0.15-0.15003 0.2343-0.35352 0.2343-0.56569s-0.0843-0.41566-0.2343-0.56569c-0.15-0.15002-0.3535-0.23431-0.5657-0.23431h-1.6v-1.6c0-0.26522 0.10536-0.51957 0.2929-0.70711 0.18753-0.18753 0.44189-0.29289 0.7071-0.29289h1.2c0.2122 0 0.4157-0.08429 0.5657-0.23431 0.15-0.15003 0.2343-0.35352 0.2343-0.56569s-0.0843-0.41566-0.2343-0.56569c-0.15-0.15002-0.3535-0.23431-0.5657-0.23431h-1.2c-0.68875 0.00263-1.3485 0.27741-1.8356 0.76443-0.48703 0.48703-0.7618 1.1468-0.76444 1.8356v1.6h-1.6c-0.21217 0-0.41565 0.08429-0.56568 0.23431-0.15003 0.15003-0.23432 0.35352-0.23432 0.56569s0.08429 0.41566 0.23432 0.56569c0.15003 0.15002 0.35351 0.23431 0.56568 0.23431h1.6v4.35c-1.6152-0.2035-3.0922-1.0149-4.1302-2.269-1.038-1.2542-1.5591-2.8568-1.4572-4.4816 0.10195-1.6248 0.81927-3.1497 2.0059-4.2642 1.1867-1.1146 2.7535-1.735 4.3815-1.735 1.628 0 3.1948 0.62042 4.3815 1.735 1.1867 1.1145 1.904 2.6394 2.0059 4.2642 0.102 1.6248-0.4191 3.2274-1.4571 4.4816-1.0381 1.2541-2.5151 2.0655-4.1303 2.269z"></path>
    </symbol>
    <symbol viewBox="0 0 16 20" id="icon-map-pin">
      <path d="m8 0c-2.1217 0-4.1566 0.84286-5.6568 2.3432-1.5003 1.5003-2.3432 3.5351-2.3432 5.6568 0 6.8 7.3 10.93 7.61 11.1 0.11858 0.0685 0.25308 0.1045 0.39 0.1045s0.27143-0.036 0.39-0.1045c0.31-0.17 7.61-4.3 7.61-11.1 0-2.1217-0.8429-4.1566-2.3431-5.6568-1.5003-1.5003-3.5352-2.3432-5.6569-2.3432zm0 17.47c-1.44-0.92-6.4-4.47-6.4-9.47 0-1.6974 0.67428-3.3252 1.8745-4.5255 1.2002-1.2002 2.8281-1.8745 4.5255-1.8745s3.3253 0.67428 4.5255 1.8745c1.2002 1.2002 1.8745 2.8281 1.8745 4.5255 0 5-4.96 8.55-6.4 9.47z"></path>
      <path d="m8 4c-0.79113 0-1.5645 0.2346-2.2223 0.67412-0.6578 0.43953-1.1705 1.0642-1.4732 1.7952-0.30275 0.7309-0.38196 1.5352-0.22762 2.3111s0.5353 1.4886 1.0947 2.048 1.2721 0.9404 2.0481 1.0947c0.77592 0.1544 1.5802 0.0752 2.3111-0.2276 0.73087-0.3027 1.3557-0.8154 1.7952-1.4732 0.4395-0.65782 0.6741-1.4312 0.6741-2.2223 0-1.0609-0.4214-2.0783-1.1716-2.8284-0.7501-0.75014-1.7675-1.1716-2.8284-1.1716zm0 6.4c-0.47468 0-0.93869-0.1408-1.3334-0.40447-0.39468-0.26372-0.70229-0.63855-0.88394-1.0771s-0.22918-0.9211-0.13657-1.3867c0.0926-0.46555 0.32118-0.89319 0.65682-1.2288 0.33565-0.33564 0.76329-0.56422 1.2288-0.65682 0.46556-0.09261 0.94812-0.04508 1.3867 0.13657s0.81337 0.48926 1.0771 0.88394c0.26367 0.39468 0.40447 0.85869 0.40447 1.3334 0.0013 0.31554-0.0599 0.62822-0.18 0.92s-0.29687 0.55688-0.51999 0.78001c-0.22313 0.22312-0.48823 0.39989-0.78001 0.51999s-0.60446 0.1813-0.92 0.18z"></path>
    </symbol>
    <symbol viewBox="0 0 16 14" id="icon-arm-left">
      <path d="m15.64 1.27-0.4498-0.59c-0.1625-0.21154-0.3714-0.38289-0.6105-0.5008-0.2392-0.11791-0.5023-0.17922-0.7689-0.1792h-0.6497c-0.8927 0.26978-1.679 0.81166-2.249 1.55l-0.12 0.15c-0.08 0.2-0.82963 2-0.5797 2.59 0.2128 0.54191 0.5023 1.0504 0.8596 1.51-2.0491 1.42-0.9996 3.58-0.6297 4.29 0.0517 0.1141 0.0854 0.2355 0.0999 0.36-0.66155-0.1872-1.3673-0.1413-1.9991 0.13-0.86637 0.3878-1.7926 0.6245-2.7388 0.7v-1.57c0.00468-0.01108 0.00709-0.02298 0.00709-0.035s-0.00241-0.02392-0.00709-0.035l-1.6992-1.64c-0.01584-0.0066-0.03283-0.01-0.04998-0.01-0.01716 0-0.03414 0.0034-0.04998 0.01h-2.259c-0.01583-0.0066-0.03282-0.01-0.04998-0.01-0.01715 0-0.03414 0.0034-0.04997 0.01l-1.6393 1.64c-0.0046734 0.01108-0.0070812 0.02298-0.0070812 0.035s0.0024078 0.02392 0.0070812 0.035v2.29c-0.0094409 0.0327-0.0094409 0.0673 0 0.1l1.5993 1.6c0.01584 0.0066 0.03283 0.01 0.04998 0.01 0.01716 0 0.03414-0.0034 0.04998-0.01h2.299c0.01584 0.0066 0.03282 0.01 0.04998 0.01 0.01715 0 0.03414-0.0034 0.04998-0.01l0.77965-0.78c0.29987 0.09 2.5289 0.73 3.4984 0.9 0.21278 0.0199 0.42694 0.0199 0.63972 0 1.1316-0.044 2.2597-0.1542 3.3785-0.33 0.0225-0.0025 0.0438-0.0114 0.0615-0.0255 0.0177-0.0142 0.031-0.0331 0.0384-0.0545 0.1278-0.2943 0.2184-0.6033 0.2699-0.92 0.0483-0.4094 0.1959-0.8007 0.4298-1.14 2.5589-3.68 1.9392-6.25 1.8492-6.56l0.4798-0.46c0.2842-0.28577 0.4517-0.66728 0.4698-1.07v-0.93c-0.0029-0.38286-0.1291-0.75458-0.3598-1.06zm-11.635 12.19h-2.209l-1.5193-1.52v-2.15l1.5193-1.53h2.209l1.4694 1.53v2.15l-1.4694 1.52zm11.735-10.2c-0.0151 0.34359-0.1535 0.67021-0.3898 0.92-0.1899 0.17-0.3798 0.36-0.5598 0.54-0.6397 0.63-1.1994 1.22-1.2094 1.22-0.0183 0.02744-0.0263 0.06045-0.0226 0.09322 0.0036 0.03277 0.0188 0.06319 0.0427 0.08589 0.0238 0.02271 0.055 0.03626 0.0879 0.03825s0.0654-0.0077 0.0919-0.02736c0 0 0.4798-0.51 1.0495-1.08 0.12 0.63 0.3699 3-1.8392 6.19-0.2607 0.3669-0.4256 0.7931-0.4798 1.24-0.0486 0.2728-0.1222 0.5406-0.2199 0.8-1.2732 0.2245-2.566 0.3183-3.8582 0.28-0.84962-0.15-2.7488-0.69-3.3285-0.86l0.59974-0.6c0.00944-0.0327 0.00944-0.0673 0-0.1v-0.43c0.99582-0.067 1.9712-0.3144 2.8787-0.73 0.63761-0.2593 1.3471-0.2806 1.9991-0.06 0.2279 0.0582 0.4516 0.1317 0.6697 0.22 0.0164 0.0066 0.034 0.0098 0.0516 0.0096 0.0177-2e-4 0.0351-0.0039 0.0514-0.0109 0.0162-0.0069 0.0309-0.017 0.0433-0.0297 0.0123-0.0126 0.0221-0.0276 0.0286-0.044 0.0066-0.0164 0.0099-0.034 0.0096-0.0516-2e-4 -0.0177-0.0039-0.0352-0.0108-0.0514-7e-3 -0.0163-0.0171-0.031-0.0297-0.0434-0.0127-0.0123-0.0276-0.022-0.044-0.0286-0.2-0.08-0.3999-0.14-0.5998-0.2-0.0028-0.1906-0.0471-0.3783-0.1299-0.55-0.5698-1.15-1.1295-2.8 0.5497-4 0.2599 0.31 0.4498 0.51 0.4698 0.53 0.0159 0.0066 0.0329 0.01 0.05 0.01 0.0172 0 0.0341-0.0034 0.05-0.01 0.0141 0.00635 0.0295 0.00963 0.045 0.00963s0.0308-0.00328 0.0449-0.00963c0.0239-0.02587 0.0372-0.05979 0.0372-0.095s-0.0133-0.06913-0.0372-0.095c0 0-0.2598-0.26-0.5597-0.65-0.357-0.45794-0.6496-0.96263-0.8696-1.5 0.02-0.8154 0.2251-1.6156 0.5997-2.34l0.11-0.14c0.5368-0.6892 1.2735-1.1956 2.109-1.45h0.5898c0.2295-0.001563 0.4563 0.049973 0.6626 0.15058 0.2064 0.10061 0.3867 0.24758 0.5268 0.42942l0.4498 0.6c0.1975 0.25496 0.3063 0.56748 0.3099 0.89l-0.02 0.93z"></path>
      <path d="m12.492 9.88c-0.0101 0.02001-0.026 0.03647-0.0456 0.04719-0.0197 0.01072-0.0421 0.01519-0.0644 0.01281h-0.07c-0.0239-0.02587-0.0371-0.05979-0.0371-0.095s0.0132-0.06913 0.0371-0.095c0.437-0.71071 0.6752-1.5258 0.6897-2.36 0.0087-0.12986 0.0087-0.26014 0-0.39-0.0028-0.0171-0.0022-0.03459 0.0018-0.05145 4e-3 -0.01685 0.0114-0.03274 0.0216-0.04671 0.0103-0.01398 0.0232-0.02576 0.0381-0.03467 0.0148-0.0089 0.0313-0.01474 0.0485-0.01717 0.0171-0.00284 0.0346-0.00223 0.0514 0.00179 0.0169 0.00402 0.0327 0.01137 0.0467 0.02162s0.0257 0.02319 0.0346 0.03806 0.0148 0.03137 0.0172 0.04853c0.0816 1.0325-0.1898 2.062-0.7696 2.92z"></path>
      <path d="m3.2956 7.35h0.06996c0.0842-0.01752 0.16098-0.06048 0.21998-0.12308 0.05899-0.06259 0.09735-0.14181 0.10988-0.22692 0.26117-0.96914 0.76557-1.8554 1.4653-2.5747 0.69975-0.71932 1.5716-1.2478 2.5329-1.5353l0.05997 0.31c0.00934 0.06013 0.03946 0.11508 0.08512 0.15528s0.10397 0.0631 0.16477 0.06472c0.04959-0.00909 0.09506-0.03359 0.12994-0.07l1.0995-1.11c0.07325-0.07477 0.11429-0.1753 0.11429-0.28s-0.04104-0.20523-0.11429-0.28c-0.04965-0.05138-0.11157-0.08924-0.17992-0.11l-1.4094-0.44c-0.06758-0.01876-0.13981-0.01046-0.20138 0.02314s-0.10765 0.08986-0.12847 0.15686c-0.01455 0.04553-0.01455 0.09447 0 0.14l0.07996 0.32c-1.1264 0.38004-2.135 1.0461-2.9269 1.9331-0.79195 0.88695-1.3402 1.9644-1.5911 3.1269-0.01157 0.06245-0.00949 0.12666 0.0061 0.18822s0.04431 0.11902 0.0842 0.16843 0.08999 0.08959 0.14687 0.11779c0.05688 0.02819 0.11919 0.04374 0.18265 0.04556z"></path>
      <path d="m4.9049 10-1.1395-1.16c-0.01395-0.00703-0.02936-0.0107-0.04498-0.0107-0.01563 0-0.03103 0.00367-0.04498 0.0107h-1.5993c-0.01583-0.0066-0.03282-0.01-0.04997-0.01-0.01716 0-0.03414 0.0034-0.04998 0.01l-1.1295 1.16c-0.009208 0.0293-0.009208 0.0607 0 0.09v1.6c-0.00944 0.0327-0.00944 0.0673 0 0.1l1.1595 1.1c0.01583 0.0066 0.03282 0.01 0.04997 0.01 0.01716 0 0.03415-0.0034 0.04998-0.01h1.5993c0.01396 7e-3 0.02936 0.0107 0.04498 0.0107 0.01563 0 0.03103-0.0037 0.04498-0.0107l1.1095-1.13c0.00944-0.0327 0.00944-0.0673 0-0.1v-1.6c0.00404-0.0198 0.00404-0.0402 0-0.06zm-1.9991 1.76c-0.172 0-0.34013-0.051-0.48313-0.1466-0.14301-0.0956-0.25447-0.2315-0.32029-0.3905-0.06582-0.1589-0.08304-0.3339-0.04949-0.5026 0.03356-0.1688 0.11638-0.3238 0.238-0.4455s0.27657-0.2045 0.44525-0.2381c0.16869-0.0336 0.34354-0.0163 0.50244 0.0495 0.15891 0.0659 0.29472 0.1774 0.39028 0.3205 0.09555 0.143 0.14655 0.3112 0.14655 0.4833-0.00254 0.1147-0.02799 0.2277-0.07485 0.3324-0.04687 0.1047-0.11419 0.199-0.19802 0.2772-0.08383 0.0783-0.18246 0.139-0.2901 0.1786-0.10763 0.0395-0.22209 0.0572-0.33663 0.0518l0.02999 0.03z"></path>
    </symbol>
    <symbol viewBox="0 0 16 7" id="icon-smily-arm">
      <path d="m2.3209 0.94711c-0.22895 0.030861-0.44442 0.12621-0.62131 0.27493s-0.30791 0.34469-0.3778 0.56507c-0.02952 0.08586-0.07723 0.16432-0.13987 0.23-0.53622 0.61472-0.91056 1.3538-1.089 2.15-0.12988 0.65-0.12988 0.92 0.039964 1.22 0.048043 0.06139 0.10155 0.11829 0.15986 0.17 0.3756 0.28345 0.78933 0.51238 1.2289 0.68 0.28396 0.09361 0.58031 0.14417 0.87922 0.15 0.33978 0.01892 0.67983-0.03213 0.99911-0.15h0.11989l0.11989 0.09c0.20521 0.17067 0.46258 0.26595 0.72935 0.27 0.21767 0.00955 0.43505-0.02445 0.63943-0.1 0.23658-0.08778 0.46411-0.1983 0.6794-0.33 0.17604-0.13948 0.31539-0.31988 0.40594-0.52553 0.09054-0.20564 0.12953-0.43031 0.11359-0.65447 0.01863-0.21381-0.0229-0.42858-0.11989-0.62-0.08889-0.21512-0.22476-0.40761-0.39764-0.56334s-0.37839-0.27076-0.60147-0.33666c-0.2351-0.0358-0.47426-0.0358-0.70936 0-0.34795 0.05818-0.68491 0.16948-0.99911 0.33l-0.13988 0.07h-0.17984c-0.33217-0.07287-0.67803-0.0521-0.99911 0.06h-0.09991c-0.00667-0.07986-0.00667-0.16014 0-0.24-0.03874-0.33598-0.00814-0.67634 0.08992-1 0.06994-0.19 0.11989-0.28 0.15986-0.26 0.24665 0.06433 0.50646 0.0574 0.74933-0.02 0.20815-0.00719 0.41243-0.0583 0.59947-0.15 0.11076-0.04523 0.2001-0.13107 0.24977-0.24 0.0383-0.13058 0.0383-0.26942 0-0.4-0.12082-0.24617-0.3076-0.4539-0.53952-0.6-0.30937-0.081637-0.63116-0.10537-0.94915-0.069999zm0.73934 0.28c0.07373 0.0078 0.14167 0.04359 0.18983 0.1 0.15571 0.12775 0.26464 0.30361 0.30973 0.5 0 0.12-0.08992 0.19-0.34969 0.27-0.31464 0.09879-0.65545 0.07006-0.94916-0.08h-0.1099s-0.18983 0.09-0.18983 0.25c-0.24212 0.58395-0.27738 1.2332-0.09991 1.84 0.00619 0.0669 0.02663 0.13168 0.05995 0.19l0.03996-0.08c0.10811-0.09702 0.23855-0.16573 0.37966-0.2 0.23041-0.05038 0.46897-0.05038 0.69938 0h0.24978c0.09957-0.03234 0.19645-0.07246 0.28974-0.12 0.22919-0.1112 0.47063-0.1951 0.71936-0.25 0.1262-0.01333 0.25345-0.01333 0.37966 0 0.21593-0.01785 0.43213 0.03101 0.61945 0.14 0.26855 0.16871 0.47804 0.41684 0.59946 0.71 0.06155 0.19019 0.08198 0.39131 0.05995 0.59-0.00314 0.13373-0.03305 0.26548-0.08797 0.38743-0.05491 0.12196-0.13372 0.23165-0.23175 0.32257-0.1058 0.09933-0.23195 0.1744-0.36967 0.22-0.24479 0.14672-0.52398 0.22607-0.80928 0.23-0.12934 0.01484-0.26035 0.00201-0.38436-0.03764-0.12402-0.03965-0.2382-0.10522-0.33499-0.19236l-0.12989-0.13-0.12988 0.06c-0.16608 0.0699-0.34085 0.11699-0.51954 0.14-0.33092 0.05308-0.66818 0.05308-0.99911 0-0.48516-0.1146-0.94112-0.32916-1.3388-0.63-0.28974-0.2-0.37966-0.33-0.38965-0.57 0.007405-0.25666 0.058073-0.51023 0.14987-0.75 0.18924-0.75199 0.57154-1.4414 1.109-2 0.04723-0.04569 0.07871-0.10522 0.08992-0.17 0.03467-0.14207 0.10006-0.27481 0.19155-0.38884 0.0915-0.11404 0.20686-0.2066 0.33798-0.27116 0.17876-0.09076 0.38067-0.1256 0.57948-0.1 0.12358-0.00787 0.24766-0.00115 0.36967 0.02z"></path>
      <path d="m12.642 1.0171c-0.2144 0.14612-0.3867 0.34615-0.4995 0.58-0.0383 0.13058-0.0383 0.26942 0 0.4 0.0245 0.06526 0.0632 0.12424 0.1133 0.17267s0.1104 0.08509 0.1764 0.10733c0.187 0.0917 0.3913 0.14281 0.5995 0.15 0.233 0.01963 0.4671-0.02173 0.6794-0.12 0 0 0.0899 0.07 0.1598 0.26 0.0981 0.32366 0.1287 0.66402 0.0899 1 0.0067 0.07986 0.0067 0.16014 0 0.24h-0.0999c-0.3056-0.10298-0.633-0.12367-0.9491-0.06h-0.1799l-0.1398-0.07c-0.3142-0.16052-0.6512-0.27182-0.9991-0.33-0.2351-0.0358-0.4743-0.0358-0.7094 0-0.2231 0.0659-0.4286 0.18093-0.6015 0.33666s-0.30873 0.34822-0.39762 0.56334c-0.09698 0.19142-0.13851 0.40619-0.11989 0.62-0.01594 0.22416 0.02305 0.44883 0.1136 0.65447 0.09054 0.20565 0.22991 0.38605 0.40591 0.52553 0.2153 0.1317 0.4428 0.24222 0.6794 0.33 0.2044 0.07555 0.4218 0.10955 0.6395 0.1 0.2667-0.00405 0.5241-0.09933 0.7293-0.27l0.1199-0.09h0.1199c0.3193 0.11787 0.6593 0.16892 0.9991 0.15 0.2989-0.00583 0.5953-0.05639 0.8792-0.15 0.4396-0.16762 0.8533-0.39655 1.2289-0.68 0.0583-0.05171 0.1118-0.10861 0.1599-0.17 0.2098-0.3 0.2198-0.57 0-1.22-0.2025-0.75557-0.5828-1.4516-1.109-2.03-0.0825-0.07274-0.1445-0.16583-0.1799-0.27-0.0699-0.22038-0.2009-0.41635-0.3778-0.56507s-0.3923-0.24407-0.6213-0.27493c-0.3072-0.017514-0.615 0.019731-0.9092 0.11zm0.5795 0.2c0.1988-0.0256 0.4007 0.00924 0.5795 0.1 0.1311 0.06456 0.2465 0.15712 0.338 0.27116 0.0915 0.11403 0.1568 0.24677 0.1915 0.38884 0.0112 0.06478 0.0427 0.12431 0.0899 0.17 0.5375 0.55856 0.9198 1.248 1.109 2 0.0918 0.23977 0.1425 0.49334 0.1499 0.75 0 0.24-0.0999 0.37-0.3896 0.57-0.3994 0.29373-0.8553 0.50143-1.3388 0.61-0.331 0.05308-0.6682 0.05308-0.9992 0-0.1806-0.03575-0.3554-0.09633-0.5195-0.18l-0.1299-0.06-0.1299 0.18c-0.0906 0.0997-0.202 0.17824-0.3263 0.23008s-0.2585 0.07571-0.393 0.06992c-0.2919-0.02485-0.5716-0.12853-0.8093-0.3-0.1441-0.05304-0.274-0.13858-0.3797-0.25-0.1871-0.17808-0.29812-0.42179-0.30968-0.68-0.01882-0.1994 0.00502-0.40054 0.06998-0.59 0.1214-0.29316 0.3309-0.54129 0.5994-0.71 0.1873-0.10899 0.4035-0.15785 0.6195-0.14 0.1262-0.01333 0.2534-0.01333 0.3796 0 0.2488 0.0549 0.4902 0.1388 0.7194 0.25 0.0933 0.04754 0.1902 0.08766 0.2897 0.12h0.2498c0.2304-0.05038 0.469-0.05038 0.6994 0 0.1375 0.03578 0.2644 0.10441 0.3697 0.2l0.0999 0.08c0.0333-0.05832 0.0537-0.12311 0.0599-0.19 0.1775-0.60677 0.1422-1.256-0.0999-1.84-0.0699-0.16-0.1998-0.32-0.2398-0.32l-0.1199 0.07c-0.2896 0.16009-0.6306 0.1996-0.9491 0.11-0.2598-0.08-0.3497-0.15-0.3497-0.27 0.0451-0.19639 0.154-0.37225 0.3097-0.5 0.0482-0.05641 0.1161-0.0922 0.1898-0.1 0.1204-0.03461 0.2445-0.05475 0.3697-0.06v0.02z"></path>
      <path d="m9.6044 2.5171c-0.26121 0.14127-0.53157 0.26488-0.80927 0.37-0.29941 0.08334-0.60843 0.12704-0.91918 0.13-0.57615-0.04454-1.1388-0.19719-1.6585-0.45-0.05995 0-0.1199 0.06-0.07993 0.1 0.08371 0.12372 0.18464 0.23484 0.29973 0.33 0.14267 0.09615 0.29714 0.17345 0.45959 0.23 0.31798 0.1301 0.65594 0.20451 0.99911 0.22 0.35773 0.01469 0.71546-0.02923 1.059-0.13 0.34874-0.07473 0.67432-0.23252 0.94916-0.46 0.13983-0.18-0.07993-0.43-0.29974-0.34z"></path>
      <path d="m9.5944 0.087111c-0.0225-0.027248-0.05073-0.049185-0.08268-0.064244-0.03196-0.015059-0.06684-0.022867-0.10215-0.022867-0.03532 0-0.0702 0.0078084-0.10215 0.022867-0.03195 0.015059-0.06019 0.036996-0.08269 0.064244-0.18159 0.28122-0.40381 0.53397-0.65941 0.75-0.11989 0.11 0 0.35 0.16985 0.29 0.2721-0.11847 0.51442-0.2961 0.70937-0.52 0.15985 0.16 0.31971 0.32 0.46958 0.49 0.14984 0.17 0.62944-0.16 0.36964-0.38-0.2597-0.22-0.45956-0.42-0.68936-0.63z"></path>
      <path d="m6.4772 0.60711c0.15986 0.16 0.30973 0.32 0.45959 0.49 0.14987 0.17 0.62944-0.16 0.37966-0.38-0.24977-0.22-0.45959-0.42-0.68938-0.63-0.0225-0.027248-0.05073-0.049185-0.08268-0.064244-0.03196-0.015059-0.06684-0.022867-0.10215-0.022867-0.03532 0-0.0702 0.0078084-0.10216 0.022867-0.03195 0.015059-0.06018 0.036996-0.08268 0.064244-0.18452 0.27899-0.40639 0.53134-0.65941 0.75-0.12989 0.11 0 0.35 0.15986 0.29 0.27746-0.11402 0.52398-0.29222 0.71935-0.52z"></path>
    </symbol>
    <symbol viewBox="0 0 16 16" id="icon-instagram">
      <path d="m8 4.4c-0.71201 0-1.408 0.21114-2 0.60671-0.59202 0.39557-1.0534 0.95782-1.3259 1.6156-0.27247 0.65781-0.34376 1.3816-0.20486 2.08 0.13891 0.69834 0.48178 1.3398 0.98525 1.8433 0.50346 0.5035 1.1449 0.8463 1.8432 0.9852 0.69834 0.1389 1.4222 0.0676 2.08-0.2048 0.65784-0.2725 1.22-0.7339 1.6156-1.3259 0.3956-0.59206 0.6067-1.2881 0.6067-2.0001 0-0.95478-0.3793-1.8704-1.0544-2.5456-0.67515-0.67514-1.5908-1.0544-2.5456-1.0544zm0 5.6c-0.39556 0-0.78224-0.1173-1.1111-0.33706s-0.58524-0.53212-0.73662-0.89757c-0.15137-0.36546-0.19098-0.76759-0.11381-1.1556s0.26765-0.74433 0.54736-1.024c0.2797-0.27971 0.63607-0.47019 1.024-0.54736s0.79009-0.03756 1.1556 0.11381c0.36545 0.15138 0.67781 0.40772 0.89757 0.73662s0.33706 0.71558 0.33706 1.1111c0 0.53043-0.21071 1.0391-0.58579 1.4142-0.37507 0.37508-0.88378 0.58579-1.4142 0.58579z"></path>
      <path d="m12.8 0h-9.6c-0.84869 0-1.6626 0.33714-2.2627 0.93726-0.60012 0.60011-0.93726 1.4141-0.93726 2.2627v9.6c0 0.8487 0.33714 1.6626 0.93726 2.2627 0.60011 0.6002 1.4141 0.9373 2.2627 0.9373h9.6c0.8487 0 1.6626-0.3371 2.2627-0.9373 0.6002-0.6001 0.9373-1.414 0.9373-2.2627v-9.6c-0.0026-0.84788-0.3406-1.6603-0.9402-2.2598-0.5995-0.59955-1.4119-0.93753-2.2598-0.94017zm1.6 12.8c0 0.4243-0.1686 0.8313-0.4686 1.1314-0.3001 0.3-0.7071 0.4686-1.1314 0.4686h-9.6c-0.21049 0.0013-0.41914-0.0392-0.61386-0.1191s-0.37163-0.1977-0.52047-0.3466c-0.14884-0.1488-0.26665-0.3257-0.34658-0.5204-0.07994-0.1948-0.12042-0.4034-0.11909-0.6139v-9.6c0-0.42435 0.16857-0.83131 0.46863-1.1314s0.70702-0.46863 1.1314-0.46863h9.6c0.4243 0 0.8313 0.16857 1.1314 0.46863 0.3 0.30006 0.4686 0.70702 0.4686 1.1314v9.6z"></path>
      <path d="M12.8 4C12.7991 4.19685 12.7265 4.38663 12.5958 4.53386C12.4652 4.68109 12.2853 4.7757 12.09 4.8H12C11.7878 4.8 11.5843 4.71571 11.4343 4.56569C11.2843 4.41566 11.2 4.21217 11.2 4C11.1965 3.80456 11.2664 3.61492 11.3961 3.46861C11.5257 3.32231 11.7056 3.23002 11.9 3.21H12C12.2105 3.20998 12.4124 3.29289 12.5622 3.44077C12.7119 3.58864 12.7974 3.78956 12.8 4Z"></path>
    </symbol>
    <symbol viewBox="0 0 16 17" id="icon-phone">
      <path d="m15.524 11.999-2.0013-2c-0.315-0.31327-0.7414-0.48913-1.1858-0.48913s-0.8707 0.17586-1.1857 0.48913l-1.1408 1.17c-1.0714-0.6148-2.0571-1.368-2.9318-2.24-0.8756-0.87148-1.6295-1.857-2.2414-2.93l1.1708-1.14c0.31347-0.31482 0.48944-0.74088 0.48944-1.185 0-0.44413-0.17597-0.87018-0.48944-1.185l-2.0013-2c-0.31502-0.31327-0.74135-0.48913-1.1858-0.48913s-0.87074 0.17586-1.1858 0.48913l-0.34022 0.35c-1.2108 1.22-1.591 3.09-1.0607 5.28 0.62777 2.3066 1.8732 4.3984 3.6023 6.05 1.6527 1.728 3.7458 2.9727 6.0539 3.6 0.60205 0.1515 1.2204 0.2288 1.8412 0.23 0.6317 0.0251 1.262-0.077 1.8533-0.3004 0.5914-0.2233 1.1317-0.5632 1.5889-0.9996l0.3503-0.34c0.3057-0.3168 0.4765-0.7398 0.4765-1.18 0-0.4401-0.1708-0.8631-0.4765-1.18zm-0.8506 1.53-0.3502 0.35c-0.5675 0.4745-1.2488 0.7931-1.977 0.9246-0.7281 0.1315-1.4779 0.0713-2.1757-0.1746-2.0922-0.5816-3.9895-1.7145-5.4935-3.28-1.5739-1.5051-2.7084-3.4098-3.2821-5.51-0.24593-0.69901-0.30606-1.4498-0.17451-2.179s0.45027-1.4118 0.92499-1.981l0.35022-0.34c0.04325-0.04648 0.09605-0.08305 0.15478-0.10722 0.05872-0.02417 0.12198-0.03535 0.18544-0.03278 0.06346-0.00257 0.12672 0.00861 0.18544 0.03278 0.05873 0.02417 0.11153 0.06074 0.15478 0.10722l2.0013 2c0.09105 0.09177 0.14213 0.21577 0.14213 0.345s-0.05108 0.25323-0.14213 0.345l-1.501 1.48c-0.0895 0.0883-0.14844 0.20285-0.16823 0.32696-0.0198 0.12412 5.7e-4 0.25131 0.05816 0.36304 0.70574 1.3176 1.6065 2.5211 2.6717 3.57 1.048 1.0621 2.2486 1.962 3.5623 2.67 0.11331 0.0584 0.2423 0.0792 0.3682 0.0594s0.2423-0.0791 0.3322-0.1694l1.511-1.5c0.0942-0.0864 0.2174-0.1344 0.3452-0.1344 0.1279 0 0.2511 0.048 0.3453 0.1344l2.0012 2c0.0429 0.0466 0.0761 0.1011 0.0978 0.1605 0.0217 0.0595 0.0315 0.1226 0.0287 0.1858s-0.0181 0.1252-0.0449 0.1825c-0.0269 0.0572-0.0648 0.1086-0.1116 0.1512v0.02z"></path>
      <path d="m12.371 8.8191c-0.0779 0.00135-0.1552-0.01298-0.2275-0.04215-0.0722-0.02917-0.1378-0.07258-0.1929-0.12764s-0.0986-0.12064-0.1278-0.19284c-0.0291-0.07219-0.0435-0.14952-0.0421-0.22737-0.013-1.0436-0.4336-2.0408-1.1721-2.7787-0.7384-0.73797-1.7362-1.1583-2.7805-1.1713-0.15924 0-0.31195-0.06322-0.42454-0.17574s-0.17585-0.26513-0.17585-0.42426 0.06326-0.31174 0.17585-0.42427c0.11259-0.11252 0.2653-0.17573 0.42454-0.17573 0.67926-0.00396 1.3526 0.12633 1.9813 0.38337 0.62866 0.25705 1.2004 0.63576 1.6821 1.1144s0.864 1.0477 1.1248 1.6745c0.2609 0.62679 0.3952 1.2989 0.3952 1.9778 0 0.07833-0.0156 0.15587-0.0459 0.22812-0.0303 0.07224-0.0747 0.13773-0.1306 0.19265s-0.1221 0.09816-0.1949 0.12722-0.1507 0.04334-0.229 0.04201h-0.0401z"></path>
      <path d="m14.903 8.8191c-0.0784 0.00133-0.1563-0.01295-0.229-0.04201-0.0728-0.02906-0.1391-0.0723-0.195-0.12722s-0.1003-0.12041-0.1305-0.19265c-0.0303-0.07225-0.0459-0.14979-0.0459-0.22812-0.0027-1.7161-0.6853-3.3612-1.8986-4.5756-1.2132-1.2144-2.8584-1.8991-4.5756-1.9044-0.07837 0.00133-0.15622-0.01295-0.22901-0.04201-0.07278-0.02905-0.13905-0.0723-0.19494-0.12722-0.05588-0.05492-0.10027-0.12041-0.13056-0.19265-0.03029-0.07225-0.04589-0.14979-0.04588-0.22812 0-0.15913 0.06326-0.31174 0.17585-0.42427 0.11259-0.11252 0.2653-0.17574 0.42454-0.17574 2.033 0.00529 3.981 0.81539 5.4176 2.2529 1.4366 1.4375 2.2447 3.3854 2.2473 5.4171 0.0014 0.07785-0.0129 0.15518-0.0421 0.22737-0.0292 0.0722-0.0727 0.13778-0.1278 0.19284s-0.1207 0.09847-0.1929 0.12764c-0.0723 0.02917-0.1496 0.0435-0.2275 0.04215z"></path>
    </symbol>
    <symbol viewBox="0 0 16 14" id="icon-arm-right">
      <path d="m15.99 9.64-1.639-1.64c-0.0158-0.0066-0.0328-0.01-0.0499-0.01-0.0172 0-0.0342 0.0034-0.05 0.01h-2.2586c-0.0141-0.00635-0.0295-0.00963-0.045-0.00963s-0.0308 0.00328-0.0449 0.00963l-1.599 1.6c-0.0085 0.02257-0.0085 0.04743 0 0.07v1.6c-0.94905-0.0765-1.8783-0.3131-2.7483-0.7-0.63166-0.2713-1.3373-0.3172-1.9988-0.13 0.01354-0.1259 0.05084-0.248 0.10993-0.36 0.26983-0.67 1.3292-2.83-0.66958-4.25 0.35003-0.46436 0.63889-0.97186 0.85946-1.51 0.23985-0.64-0.50968-2.39-0.58963-2.59l-0.11993-0.15c-0.58115-0.75983-1.3902-1.3135-2.3086-1.58h-0.6496c-0.26659-2.2219e-5 -0.52962 0.06129-0.76875 0.1792-0.23914 0.11791-0.44798 0.28926-0.61039 0.5008l-0.44972 0.59c-0.23073 0.30542-0.3569 0.67714-0.35978 1.06v0.93c0.0080506 0.41668 0.17628 0.81423 0.46971 1.11l0.52967 0.46c-0.13991 0.31-0.75952 2.88 1.7989 6.56 0.23391 0.3393 0.38144 0.7306 0.42973 1.14 0.05149 0.3167 0.14213 0.6257 0.26983 0.92 0.01026 0.0195 0.02443 0.0367 0.04162 0.0504 0.0172 0.0138 0.03706 0.0239 0.05832 0.0296 1.1252 0.1766 2.2598 0.2867 3.3979 0.33 0.21273 0.0199 0.42686 0.0199 0.6396 0 0.99937-0.17 3.198-0.81 3.4978-0.9l0.7895 0.78c0.0142 0.0063 0.0295 0.0096 0.045 0.0096s0.0308-0.0033 0.045-0.0096h2.2586c0.0158 0.0066 0.0328 0.01 0.0499 0.01 0.0172 0 0.0342-0.0034 0.05-0.01l1.619-1.64c0.0066-0.0158 0.01-0.0328 0.01-0.05s-0.0034-0.0342-0.01-0.05v-2.29c0.0052-0.02305 0.0052-0.04695 0-0.07zm-8.4247 3.92c-1.292 0.0383-2.5846-0.0555-3.8576-0.28-0.09899-0.2582-0.16936-0.5265-0.20987-0.8-0.07122-0.4457-0.24202-0.8695-0.49968-1.24-2.1986-3.19-1.9488-5.56-1.8189-6.19 0.56965 0.57 0.99938 1.07 0.99938 1.08 0.02585 0.0239 0.05975 0.03717 0.09494 0.03717s0.06909-0.01327 0.09494-0.03717c0.01301-0.01216 0.02339-0.02687 0.03048-0.04321 0.00709-0.01635 0.01075-0.03397 0.01075-0.05179s-0.00366-0.03544-0.01075-0.05179c-0.00709-0.01634-0.01747-0.03105-0.03048-0.04321 0 0-0.56964-0.59-1.1992-1.22l-0.51968-0.54c-0.23494-0.24976-0.37008-0.57714-0.37976-0.92v-0.93c-1.2e-5 -0.32149 0.1053-0.63412 0.29981-0.89l0.42973-0.6c0.13798-0.1842 0.31782-0.33287 0.52462-0.43373 0.20681-0.10086 0.43463-0.151 0.66464-0.14627h0.58963c0.83178 0.25621 1.5645 0.76248 2.0987 1.45l0.11993 0.14c0.36827 0.74012 0.56633 1.5533 0.57963 2.38-0.35054 0.79767-0.84136 1.5259-1.4491 2.15-0.00762 0.02952-0.00762 0.06048 0 0.09-0.01143 0.03235-0.01143 0.06765 0 0.1 0.01583 0.0066 0.03282 0.01 0.04997 0.01s0.03413-0.0034 0.04997-0.01c0.01414 0.00635 0.02947 0.00963 0.04497 0.00963s0.03083-0.00328 0.04497-0.00963c0.16649-0.18159 0.32328-0.37186 0.46971-0.57 1.679 1.16 1.1193 2.81 0.55965 4-0.09066 0.1692-0.13869 0.358-0.13991 0.55-0.19988 0.06-0.39975 0.12-0.59963 0.2-0.03002 0.0151-0.05303 0.0412-0.06421 0.0729s-0.00966 0.0665 0.00425 0.0971c0.00557 0.0166 0.01446 0.032 0.02613 0.0451 0.01166 0.0131 0.02586 0.0237 0.04173 0.0312 0.01588 0.0075 0.03311 0.0117 0.05064 0.0123 0.01754 6e-4 0.03502-0.0023 0.05139-0.0086 0.21405-0.0897 0.43454-0.1633 0.65959-0.22 0.65187-0.2206 1.3613-0.1993 1.9988 0.06 0.91082 0.4157 1.8893 0.6631 2.8882 0.73v0.43c-0.01 0.0326-0.01 0.0674 0 0.1l0.6096 0.6c-0.5497 0.17-2.4485 0.71-3.3079 0.86zm8.1549-1.62-1.5191 1.52h-2.1486l-1.5291-1.52v-2.15l1.5291-1.53h2.1486l1.5191 1.53v2.15z"></path>
      <path d="m3.6977 9.92h-0.07995c-0.02172-7.7e-4 -0.04297-0.00659-0.06205-0.01701-0.01908-0.01041-0.03548-0.02513-0.04788-0.04299-0.58068-0.86473-0.84865-1.902-0.75953-2.94 0.00243-0.01716 0.00827-0.03366 0.01716-0.04853 0.0089-0.01487 0.02068-0.02781 0.03465-0.03806 0.01396-0.01025 0.02984-0.0176 0.04668-0.02162 0.01685-0.00402 0.03433-0.00463 0.05142-0.00179 0.021 0.00242 0.0411 0.00993 0.05854 0.02189 0.01745 0.01195 0.03171 0.02799 0.04156 0.04671s0.01498 0.03956 0.01495 0.06072-0.00522 0.04199-0.01511 0.06068c-0.06932 0.97094 0.18361 1.9376 0.71955 2.75 0.01593 0.02656 0.02261 0.05765 0.01899 0.08841-0.00361 0.03076-0.01732 0.05946-0.03898 0.08159z"></path>
      <path d="m12.992 7.21c0.0456-0.05084 0.0785-0.11182 0.0959-0.17791 0.0173-0.06608 0.0187-0.13536 4e-3 -0.20209-0.129-0.61396-0.3444-1.2065-0.6396-1.76-0.8238-1.5514-2.2065-2.7311-3.8676-3.3l0.07996-0.32c0.01-0.04613 0.01-0.09387 0-0.14-0.02294-0.06776-0.07093-0.12416-0.13411-0.15764-0.06319-0.03347-0.13679-0.04147-0.20568-0.02236l-1.4291 0.44c-0.06834 0.02076-0.13025 0.05862-0.17989 0.11-0.07324 0.07477-0.11427 0.1753-0.11427 0.28s0.04103 0.20523 0.11427 0.28l1.0993 1.11c0.0235 0.0235 0.05163 0.04186 0.08259 0.05391 0.03097 0.01205 0.0641 0.01753 0.09729 0.01609 0.03348 0.00898 0.06841 0.01116 0.10274 0.00642 0.03433-0.00473 0.06737-0.01629 0.09717-0.034 0.0298-0.0177 0.05576-0.04119 0.07635-0.06909 0.02059-0.02789 0.03539-0.05962 0.04354-0.09333l0.05997-0.31c0.96109 0.28748 1.8328 0.81595 2.5324 1.5353 0.6996 0.71931 1.2039 1.6056 1.4651 2.5747 0.0196 0.0778 0.0611 0.14834 0.1195 0.20327 0.0585 0.05494 0.1314 0.09198 0.2103 0.10673h0.0799c0.0812-0.02187 0.1541-0.06706 0.2099-0.13z"></path>
      <path d="m15.15 10-1.1592-1.16c-0.0159-0.0066-0.0329-0.01-0.05-0.01-0.0172 0-0.0341 0.0034-0.05 0.01h-1.599c-0.0141-0.00635-0.0295-0.00963-0.045-0.00963s-0.0308 0.00328-0.0449 0.00963l-1.0993 1.16c-0.0064 0.0142-0.0097 0.0295-0.0097 0.045s0.0033 0.0308 0.0097 0.045v1.6c-0.0066 0.0158-0.01 0.0328-0.01 0.05s0.0034 0.0342 0.01 0.05l1.1293 1.13c0.0141 0.0063 0.0294 0.0096 0.0449 0.0096s0.0309-0.0033 0.045-0.0096h1.599c0.0158 0.0066 0.0328 0.01 0.05 0.01 0.0171 0 0.0341-0.0034 0.0499-0.01l1.1293-1.13c0.0066-0.0158 0.01-0.0328 0.01-0.05s-0.0034-0.0342-0.01-0.05v-1.6c0.0064-0.0142 0.0097-0.0295 0.0097-0.045s-0.0033-0.0308-0.0097-0.045zm-1.4091 1.51c-0.1668 0.1598-0.3886 0.2494-0.6196 0.25-0.172 0-0.3401-0.051-0.483-0.1466-0.143-0.0956-0.2545-0.2315-0.3203-0.3905-0.0658-0.1589-0.083-0.3339-0.0495-0.5026 0.0336-0.1688 0.1164-0.3238 0.238-0.4455s0.2765-0.2045 0.4452-0.2381c0.1686-0.0336 0.3435-0.0163 0.5023 0.0495 0.1589 0.0659 0.2947 0.1774 0.3902 0.3205 0.0956 0.143 0.1466 0.3112 0.1466 0.4833-0.0082 0.2207-0.0971 0.4307-0.2499 0.59v0.03z"></path>
    </symbol>
    <symbol viewBox="0 0 16 12" id="icon-youtube">
      <path d="m15.67 2.0046c-0.0943-0.40187-0.2942-0.77127-0.579-1.0701-0.2848-0.29884-0.6441-0.51628-1.041-0.6299-2.0084-0.22617-4.029-0.32637-6.05-0.3-2.0285-0.029054-4.0566 0.081205-6.07 0.33-0.39131 0.11259-0.74609 0.32619-1.0287 0.61933-0.28261 0.29314-0.48309 0.6555-0.5813 1.0507-0.22206 1.2341-0.32918 2.4861-0.32 3.74-0.0089192 1.2742 0.10156 2.5464 0.33 3.8 0.10856 0.38131 0.31385 0.72805 0.59594 1.0066 0.28209 0.2786 0.63141 0.4796 1.0141 0.5833 2.01 0.249 4.0348 0.3593 6.06 0.33 2.0252 0.0288 4.05-0.0815 6.06-0.33 0.3926-0.1134 0.7482-0.3285 1.0309-0.6235s0.4825-0.65945 0.5791-1.0564c0.2197-1.2245 0.3301-2.466 0.33-3.71-0.0013-1.2539-0.1117-2.5053-0.33-3.74zm-0.73 7.31c-0.0653 0.26531-0.1996 0.50864-0.3892 0.70535-0.1897 0.1967-0.428 0.3397-0.6908 0.4146-1.9441 0.2343-3.902 0.3346-5.86 0.3-1.9612 0.0348-3.9225-0.0654-5.87-0.3-0.24734-0.0647-0.47468-0.19-0.66148-0.3646s-0.3272-0.39295-0.40852-0.63535c-0.22057-1.2175-0.3277-2.4528-0.32-3.69-0.002789-1.1968 0.10095-2.3916 0.31-3.57 0.06719-0.26444 0.20212-0.5068 0.39151-0.7032 0.18938-0.1964 0.42668-0.34005 0.68849-0.4168 1.9472-0.23818 3.9085-0.34176 5.87-0.31 1.9567-0.024496 3.9132 0.06231 5.86 0.26 0.2616 0.07407 0.4991 0.21561 0.6886 0.41044 0.1896 0.19483 0.3246 0.43608 0.3914 0.69956 0.2132 1.1914 0.317 2.3997 0.31 3.61 0.0045 1.1969-0.0993 2.3918-0.31 3.57v0.02z"></path>
      <path d="m10.61 5.4246-4-2.27c-0.05711-0.0298-0.12058-0.04536-0.185-0.04536-0.06441 0-0.12788 0.01556-0.185 0.04536-0.0586 0.03261-0.10724 0.08055-0.14071 0.13868-0.03346 0.05812-0.0505 0.12425-0.04929 0.19132v4.52c-4.8e-4 0.06558 0.01696 0.13005 0.05045 0.18645 0.03348 0.0564 0.08174 0.10257 0.13955 0.13354 0.05653 0.03618 0.12299 0.05367 0.19 0.05001 0.06372 0.00223 0.12657-0.01523 0.18-0.05001l4-2.26c0.0566-0.03489 0.1037-0.08333 0.1368-0.14095 0.0332-0.05761 0.0515-0.12259 0.0532-0.18905-0.0032-0.06344-0.0223-0.12505-0.0555-0.1792-0.0332-0.05416-0.0794-0.09913-0.1345-0.1308zm-3.8 2v-3.3l2.86 1.62-2.86 1.68z"></path>
    </symbol>
    <symbol viewBox="0 0 16 14" id="icon-mail">
      <path d="m13.34 0h-10.67c-0.7064-4.9544e-6 -1.384 0.27992-1.8844 0.77849-0.50044 0.49856-0.78291 1.1751-0.78555 1.8815v8c0 0.7081 0.2813 1.3873 0.78202 1.888 0.50072 0.5007 1.1798 0.782 1.888 0.782h10.67c0.3502 0 0.6969-0.0691 1.0203-0.2034 0.3233-0.1343 0.617-0.3312 0.8641-0.5792 0.2472-0.2481 0.4429-0.5425 0.576-0.8664s0.2009-0.6708 0.1996-1.021v-8c0-0.70548-0.2802-1.3821-0.7791-1.8809-0.4988-0.49885-1.1754-0.7791-1.8809-0.7791zm1.33 10.66c0 0.3537-0.1398 0.693-0.3889 0.944-0.2492 0.251-0.5874 0.3934-0.9411 0.396h-10.67c-0.1755 0-0.34927-0.0347-0.51129-0.1022s-0.30908-0.1663-0.43272-0.2909c-0.12363-0.1245-0.22139-0.2723-0.28763-0.4349-0.06625-0.1625-0.09968-0.3365-0.09836-0.512v-8c0-0.35274 0.14012-0.69103 0.38955-0.94045 0.24942-0.24943 0.58771-0.38955 0.94045-0.38955h10.67c0.3519 0.00262 0.6887 0.14358 0.9376 0.39244 0.2488 0.24886 0.3898 0.58563 0.3924 0.93756v8z"></path>
      <path d="m13.16 10.05c-0.0614 0.0623-0.1346 0.1117-0.2153 0.1455-0.0806 0.0338-0.1672 0.0511-0.2547 0.0511s-0.1741-0.0173-0.2547-0.0511c-0.0807-0.0338-0.1539-0.0832-0.2153-0.1455l-2.76-2.49c-0.43024 0.28891-0.93676 0.44319-1.455 0.44319s-1.0248-0.15428-1.455-0.44319l-2.77 2.5c-0.06259 0.0732-0.14021 0.132-0.22759 0.1725s-0.18246 0.0616-0.27876 0.0621c-0.0963 4e-4 -0.19156-0.02-0.27928-0.0597s-0.16585-0.0979-0.22906-0.1706c-0.0632-0.07263-0.11001-0.15805-0.13722-0.25043-0.02721-0.09237-0.03418-0.18953-0.02045-0.28484 0.01373-0.09532 0.04785-0.18656 0.10002-0.26749 0.05218-0.08094 0.1212-0.14968 0.20234-0.20154l2.64-2.4-2.66-2.38c-0.06566-0.05802-0.11911-0.12853-0.15723-0.20743-0.03812-0.07889-0.06015-0.16459-0.06481-0.25209-0.00465-0.0875 0.00816-0.17505 0.0377-0.25754 0.02954-0.0825 0.0752-0.15828 0.13434-0.22294 0.0614-0.06228 0.13458-0.11174 0.21526-0.1455 0.08069-0.03376 0.16728-0.05114 0.25474-0.05114s0.17405 0.01738 0.25474 0.05114c0.08068 0.03376 0.15386 0.08322 0.21526 0.1455l3.32 3c0.24751 0.22138 0.56793 0.34377 0.9 0.34377s0.65249-0.12239 0.9-0.34377l3.32-3c0.0657-0.05909 0.1423-0.10468 0.2256-0.13415s0.1715-0.04224 0.2598-0.0376c0.0882 0.00464 0.1746 0.02661 0.2543 0.06466 0.0798 0.03805 0.1512 0.09143 0.2103 0.15709s0.1047 0.14232 0.1341 0.2256c0.0295 0.08327 0.0423 0.17154 0.0377 0.25976-0.0047 0.08821-0.0267 0.17465-0.0647 0.25437-0.0381 0.07973-0.0914 0.15118-0.1571 0.21027l-2.64 2.4 2.64 2.4c0.1181 0.11986 0.1875 0.27923 0.1949 0.44731s-0.0478 0.33293-0.1549 0.46269z"></path>
    </symbol>
  <defs />
</svg>